<svg width="20" height="20" viewBox="0 0 20 20" fill="none" xmlns="http://www.w3.org/2000/svg">
<path d="M8.57143 15.7143C8.57143 13.3474 6.65265 11.4286 4.28571 11.4286H1.42857C0.639592 11.4286 0 10.789 0 10C0 9.21102 0.639593 8.57143 1.42857 8.57143H4.28571C6.65265 8.57143 8.57143 6.65265 8.57143 4.28571V1.42857C8.57143 0.639592 9.21102 0 10 0C10.789 0 11.4286 0.639593 11.4286 1.42857V4.28571C11.4286 6.65265 13.3474 8.57143 15.7143 8.57143H18.5714C19.3604 8.57143 20 9.21102 20 10C20 10.789 19.3604 11.4286 18.5714 11.4286H15.7143C13.3474 11.4286 11.4286 13.3474 11.4286 15.7143V18.5714C11.4286 19.3604 10.789 20 10 20C9.21102 20 8.57143 19.3604 8.57143 18.5714V15.7143Z" fill="white"/>
</svg>
