<svg width="38" height="39" viewBox="0 0 38 39" fill="none" xmlns="http://www.w3.org/2000/svg">
<rect y="0.5" width="38" height="38" rx="10" fill="#00B1B1"/>
<path d="M16 28.5C14.3333 28.5 12.9167 27.9167 11.75 26.75C10.5833 25.5833 10 24.1667 10 22.5V16.5C10 14.8333 10.5833 13.4167 11.75 12.25C12.9167 11.0833 14.3333 10.5 16 10.5H22C23.6667 10.5 25.0833 11.0833 26.25 12.25C27.4167 13.4167 28 14.8333 28 16.5V22.5C28 24.1667 27.4167 25.5833 26.25 26.75C25.0833 27.9167 23.6667 28.5 22 28.5H16ZM18 23.5L24 17.5L22.6 16.1L18 20.7L15.8 18.5L14.4 19.9L18 23.5ZM16 26.5H22C23.1 26.5 24.0417 26.1083 24.825 25.325C25.6083 24.5417 26 23.6 26 22.5V16.5C26 15.4 25.6083 14.4583 24.825 13.675C24.0417 12.8917 23.1 12.5 22 12.5H16C14.9 12.5 13.9583 12.8917 13.175 13.675C12.3917 14.4583 12 15.4 12 16.5V22.5C12 23.6 12.3917 24.5417 13.175 25.325C13.9583 26.1083 14.9 26.5 16 26.5Z" fill="white"/>
</svg>
